:SAMPLES-PER-SECOND 30
:FULLY-SPECIFIED
:DEGREES
62
root  -5.66792 40.9349 0.094183 47.0157 -89.6339 -47.3114
RightUpLeg  5.18143 -2.15034 -1.60144
RightLeg  -3.35306 -24.7759 1.92534
RightFoot  -0.203502 -0.332704 3.39153
RightToes  -3.11842e-008 1.75238e-005 3.56266e-009
Spine  -5.87936 -0.733093 -1.75365
Spine1  11.1654 -0.462859 -0.537685
HEad  -13.9937 -0.513797 7.13529
LeftShoulder1  2.48881 -4.71336 -24.0776
LeftArm  -39.4927 13.1578 -54.7371
LeftForeArm  172.69 -55.26 -165.795
LeftHand  -0.860446 -3.49308 11.4922
RightShoulder  2.3136 4.6473 22.1429
RightArm  -25.1782 1.50786 44.029
RightForeArm  163.473 65.1639 158.107
RightHand  -1.52529 10.3397 -11.5946
LeftUpLeg  5.48694 1.70221 3.14744
LeftLeg  -3.79741 16.805 -1.16516
LeftFoot  -0.0659077 0.324542 -3.20406
LeftToes  4.78904e-008 1.4679e-008 1.35657e-009
63
root  -5.68162 40.931 0.0716366 89.3665 -89.6858 -89.8495
RightUpLeg  5.36363 -2.10004 -1.4974
RightLeg  -3.31744 -24.6189 1.8935
RightFoot  -0.275862 -0.326319 3.30289
RightToes  -3.11842e-008 1.75238e-005 3.56266e-009
Spine  -6.2319 -0.828794 -1.95034
Spine1  12.4117 -0.557855 -0.489873
HEad  -15.0941 -0.0617352 7.73955
LeftShoulder1  2.49059 -4.62872 -24.4272
LeftArm  -38.442 19.9384 -57.9057
LeftForeArm  172.26 -53.9166 -166.412
LeftHand  -0.831426 -4.12728 10.4043
RightShoulder  2.5811 5.1965 23.5246
RightArm  -19.4927 -2.26796 44.49
RightForeArm  172.393 65.2411 158.987
RightHand  -1.33091 10.6549 -9.98025
LeftUpLeg  5.66565 1.82994 3.27472
LeftLeg  -3.6163 16.8989 -1.13864
LeftFoot  -0.192436 0.327098 -3.25007
LeftToes  4.78904e-008 1.4679e-008 1.35657e-009
64
root  -5.67755 40.9332 0.0449319 106.232 -89.609 -106.727
RightUpLeg  5.40343 -2.16567 -1.4843
RightLeg  -3.41097 -24.4191 2.07351
RightFoot  -0.279838 -0.312667 3.10063
RightToes  -3.11842e-008 1.75238e-005 3.56266e-009
Spine  -6.63553 -0.796285 -2.45875
Spine1  13.3829 -0.682296 0.180731
HEad  -16.4301 -0.267296 7.77175
LeftShoulder1  2.55334 -4.90093 -24.17
LeftArm  -37.8679 24.165 -59.6953
LeftForeArm  167.929 -54.0032 -166.032
LeftHand  -0.808375 -3.01322 11.387
RightShoulder  2.65171 5.3532 23.8046
RightArm  -15.718 -4.36811 45.4111
RightForeArm  179.08 66.0103 158.991
RightHand  -1.09386 10.8373 -8.20584
LeftUpLeg  5.45 1.8451 3.34314
LeftLeg  -3.12095 16.9779 -0.931622
LeftFoot  -0.276106 0.340648 -3.46703
LeftToes  4.78904e-008 1.4679e-008 1.35657e-009
65
root  -5.65145 40.9274 0.0253529 133.289 -89.4118 -133.773
RightUpLeg  5.20313 -2.08684 -1.38329
RightLeg  -3.16196 -24.2324 1.91319
RightFoot  -0.328726 -0.314303 3.13304
RightToes  -3.11842e-008 1.75238e-005 3.56266e-009
Spine  -6.83743 -0.602192 -2.63174
Spine1  14.0609 -0.585338 0.638697
HEad  -17.7413 -0.323992 7.84134
LeftShoulder1  2.44615 -4.69088 -23.6095
LeftArm  -36.5986 26.6196 -60.1003
LeftForeArm  162.463 -53.8998 -165.659
LeftHand  -0.747637 -2.11942 11.7413
RightShoulder  2.68322 5.40161 24.0043
RightArm  -12.79 -4.71318 45.614
RightForeArm  177.869 66.4393 158.449
RightHand  -1.08363 11.1978 -7.96427
LeftUpLeg  5.58256 1.75893 3.33011
LeftLeg  -3.40616 17.3649 -0.923517
LeftFoot  -0.28895 0.334951 -3.3842
LeftToes  4.78904e-008 1.4679e-008 1.35657e-009
66
root  -5.61804 40.9311 0.00782453 153.812 -89.0698 -154.309
RightUpLeg  5.07753 -1.97061 -1.32534
RightLeg  -3.07629 -23.9489 1.7913
RightFoot  -0.304162 -0.319908 3.22847
RightToes  -3.11842e-008 1.75238e-005 3.56266e-009
Spine  -6.65014 -0.220968 -2.59015
Spine1  14.1543 -0.245496 0.811601
HEad  -18.7321 -0.985324 7.8824
LeftShoulder1  2.3203 -4.39125 -23.1273
LeftArm  -35.8807 27.7127 -59.2898
LeftForeArm  159.4 -53.5189 -165.612
LeftHand  -0.793524 -2.12823 12.4295
RightShoulder  2.77508 5.63707 24.2476
RightArm  -12.0633 -4.52429 45.7072
RightForeArm  175.954 66.2144 158.456
RightHand  -1.0422 10.7626 -7.87368
LeftUpLeg  5.59223 1.7516 3.32623
LeftLeg  -3.38639 17.8032 -0.90325
LeftFoot  -0.242247 0.344604 -3.54013
LeftToes  4.78904e-008 1.4679e-008 1.35657e-009
